<?xml version="1.0" standalone="no"?>
<!DOCTYPE svg PUBLIC "-//W3C//DTD SVG 20010904//EN"
 "http://www.w3.org/TR/2001/REC-SVG-20010904/DTD/svg10.dtd">
<svg version="1.0" xmlns="http://www.w3.org/2000/svg"
 width="1778.000000pt" height="780.000000pt" viewBox="0 0 1778.000000 780.000000"
 preserveAspectRatio="xMidYMid meet">
<metadata>
Created by potrace 1.13, written by Peter Selinger 2001-2015
</metadata>
<g transform="translate(0.000000,780.000000) scale(0.100000,-0.100000)"
fill="#000000" stroke="none">
<path d="M1310 4989 c-390 -25 -833 -99 -1195 -200 -106 -29 -115 -33 -115
-55 0 -13 1 -24 3 -24 1 0 99 24 217 54 529 134 905 180 1460 180 468 0 749
-27 1138 -110 456 -97 710 -202 1357 -559 618 -341 908 -456 1342 -534 239
-43 394 -55 718 -55 575 -1 907 44 2080 279 369 74 762 150 875 169 1206 207
2119 176 2926 -98 411 -140 774 -333 1344 -715 671 -450 772 -516 924 -608
733 -440 1489 -683 2315 -744 204 -15 684 -7 871 15 214 25 210 24 210 53 0
24 -2 25 -40 19 -205 -33 -340 -41 -695 -41 -290 0 -402 4 -520 18 -737 87
-1367 294 -2005 658 -169 97 -422 260 -806 520 -780 529 -1131 722 -1604 879
-649 217 -1372 278 -2236 190 -396 -41 -703 -92 -1489 -251 -324 -65 -675
-134 -780 -153 -910 -166 -1561 -188 -2150 -71 -397 79 -679 194 -1235 503
-606 336 -857 444 -1275 547 -482 119 -1093 169 -1635 134z"/>
<path d="M9165 3504 c-22 -2 -92 -9 -155 -15 -495 -46 -874 -138 -1825 -443
-459 -147 -620 -194 -880 -261 -817 -209 -1548 -295 -2325 -274 -453 13 -734
50 -1446 189 -842 165 -1122 198 -1609 187 -316 -7 -605 -39 -852 -93 -66 -14
-73 -18 -73 -40 0 -13 1 -24 3 -24 1 0 58 11 127 25 476 93 991 110 1510 49
182 -21 401 -59 865 -149 840 -164 1119 -196 1703 -196 556 0 1023 47 1592
161 444 88 777 178 1420 385 900 289 1229 370 1740 431 182 21 711 30 895 15
539 -45 989 -162 1420 -370 288 -139 492 -264 995 -611 562 -387 713 -480
1044 -640 876 -425 1920 -623 3111 -589 392 11 728 44 1125 110 240 39 230 36
230 65 0 13 -3 24 -7 24 -5 0 -67 -11 -139 -25 -275 -51 -637 -94 -964 -115
-214 -14 -789 -14 -1000 0 -909 60 -1715 262 -2383 596 -287 144 -475 261
-971 603 -523 361 -704 472 -1001 617 -409 199 -781 306 -1285 370 -118 15
-758 28 -865 18z"/>
<path d="M8720 3124 c-358 -32 -663 -99 -1070 -234 -284 -95 -541 -196 -1135
-450 -817 -347 -1120 -463 -1514 -576 -510 -146 -957 -205 -1385 -183 -289 15
-470 45 -1096 183 -537 118 -746 147 -1060 147 -495 1 -949 -114 -1367 -345
-82 -45 -93 -54 -93 -78 0 -34 1 -34 49 -4 69 44 274 143 391 189 197 77 431
138 640 166 156 20 200 23 390 23 317 -1 501 -29 1155 -172 544 -119 702 -144
996 -159 551 -29 1168 83 1869 339 241 88 559 217 1070 435 1026 438 1454 578
1990 652 176 24 560 24 725 0 498 -74 945 -259 1495 -622 221 -145 444 -311
880 -654 773 -609 1102 -832 1565 -1064 956 -478 1845 -521 3122 -151 339 98
885 286 1266 436 162 63 177 72 177 94 0 13 -2 24 -5 24 -2 0 -57 -21 -122
-46 -447 -173 -960 -352 -1293 -449 -1496 -438 -2452 -325 -3635 428 -274 174
-524 358 -1045 768 -704 554 -1014 766 -1410 965 -458 230 -846 331 -1300 338
-113 2 -225 2 -250 0z"/>
</g>
</svg>
