<?xml version="1.0" standalone="no"?>
<!DOCTYPE svg PUBLIC "-//W3C//DTD SVG 20010904//EN"
 "http://www.w3.org/TR/2001/REC-SVG-20010904/DTD/svg10.dtd">
<svg class="contact_waves" version="1.0" xmlns="http://www.w3.org/2000/svg"
 width="1868.000000pt" height="632.000000pt" viewBox="0 0 1868.000000 632.000000"
 preserveAspectRatio="xMidYMid meet">
<metadata>
Created by potrace 1.13, written by Peter Selinger 2001-2015
</metadata>
<g transform="translate(0.000000,632.000000) scale(0.100000,-0.100000)"
fill="#000000" stroke="none">
<path d="M5230 5290 c-474 -41 -886 -152 -1350 -362 -232 -105 -469 -232 -965
-516 -739 -424 -1096 -590 -1492 -692 -451 -117 -921 -112 -1328 15 -98 30
-95 30 -95 0 0 -22 8 -27 83 -50 425 -129 895 -133 1362 -10 404 106 736 260
1505 700 461 263 827 456 1051 553 352 153 716 252 1099 299 203 25 722 25
935 0 488 -57 791 -132 1595 -394 1236 -402 1770 -558 2400 -697 1031 -229
1926 -281 2753 -161 360 52 688 129 1388 326 719 201 1096 290 1434 338 640
91 1282 69 1882 -65 367 -81 741 -209 1071 -365 l122 -58 0 28 c0 26 -9 32
-112 81 -745 349 -1595 518 -2413 480 -587 -28 -965 -102 -2010 -395 -1006
-282 -1348 -347 -1997 -377 -719 -33 -1530 67 -2493 309 -529 133 -918 249
-1965 590 -834 271 -1157 351 -1640 409 -159 18 -663 27 -820 14z"/>
<path d="M16705 4334 c-470 -47 -780 -123 -1365 -336 -639 -233 -723 -262
-895 -313 -1077 -318 -2203 -309 -3930 31 -154 31 -514 104 -800 164 -876 183
-1244 252 -1675 315 -607 88 -1081 122 -1585 112 -1031 -20 -1824 -232 -2662
-713 -247 -141 -401 -240 -978 -624 -666 -443 -868 -566 -1202 -733 -489 -245
-1031 -432 -1555 -537 -52 -10 -58 -14 -58 -36 0 -13 4 -24 9 -24 21 0 255 53
396 90 617 160 1186 405 1777 767 78 48 397 256 709 464 581 385 820 535 1084
678 630 340 1233 518 2025 598 246 24 936 24 1235 0 655 -55 1231 -147 2265
-363 732 -153 922 -192 1195 -243 1706 -320 2843 -303 3934 59 84 28 307 108
495 177 764 281 1063 362 1516 408 204 21 676 16 860 -9 425 -59 715 -142
1168 -333 10 -4 13 2 10 23 -3 26 -12 33 -118 77 -320 135 -680 231 -1062 283
-108 15 -692 28 -793 18z"/>
<path d="M17275 3710 c-557 -39 -1087 -187 -1835 -513 -107 -47 -312 -138
-455 -202 -681 -306 -1055 -434 -1577 -539 -504 -102 -944 -140 -1603 -140
-561 0 -720 9 -1710 99 -796 72 -913 79 -1370 79 -455 0 -618 -11 -940 -64
-581 -96 -984 -257 -1800 -715 -545 -307 -849 -459 -1184 -591 -802 -318
-1629 -496 -2621 -566 -239 -16 -1015 -16 -1260 0 -331 23 -791 68 -892 88
-25 5 -28 2 -28 -19 0 -32 -4 -31 270 -61 1540 -172 2933 -46 4185 378 467
158 832 324 1355 616 636 356 832 458 1095 568 371 156 757 249 1235 299 127
13 262 17 580 17 467 0 564 -5 1430 -84 300 -27 637 -56 750 -64 1269 -93
2310 1 3190 286 294 96 482 172 1035 421 600 270 897 387 1220 482 432 127
770 179 1180 179 381 0 685 -43 1035 -144 58 -16 108 -30 113 -30 4 0 7 11 7
24 0 21 -10 26 -107 54 -220 63 -412 101 -638 126 -179 20 -493 27 -660 16z"/>
</g>
</svg>
