<?xml version="1.0" standalone="no"?>
<!DOCTYPE svg PUBLIC "-//W3C//DTD SVG 20010904//EN"
 "http://www.w3.org/TR/2001/REC-SVG-20010904/DTD/svg10.dtd">
<svg version="1.0" xmlns="http://www.w3.org/2000/svg"
 width="1708.000000pt" height="1120.000000pt" viewBox="0 0 1708.000000 1120.000000"
 preserveAspectRatio="xMidYMid meet">
<metadata>
Created by potrace 1.13, written by Peter Selinger 2001-2015
</metadata>
<g transform="translate(0.000000,1120.000000) scale(0.100000,-0.100000)"
fill="#000000" stroke="none">
<path d="M5059 11120 c288 -464 766 -805 1311 -934 191 -46 310 -59 530 -59
257 0 353 12 840 108 525 105 599 115 845 122 236 6 357 -4 760 -62 391 -56
480 -66 675 -72 209 -7 349 5 536 42 523 105 1004 421 1304 855 l51 75 -28 3
c-20 3 -32 -2 -43 -19 -213 -328 -566 -610 -951 -763 -230 -91 -444 -134 -709
-143 -216 -7 -342 4 -795 67 -426 59 -536 70 -731 70 -248 0 -433 -25 -894
-120 -507 -105 -749 -132 -1012 -111 -558 44 -1037 265 -1397 647 -88 92 -206
244 -254 327 -23 39 -33 47 -58 47 l-29 0 49 -80z"/>
<path d="M14616 11178 c-3 -13 -15 -72 -26 -133 -47 -236 -170 -541 -300 -740
-268 -409 -650 -714 -1125 -898 -383 -149 -869 -213 -1336 -177 -289 23 -471
57 -979 181 -629 155 -833 185 -1190 176 -236 -7 -394 -25 -760 -88 -733 -126
-820 -138 -1096 -146 -407 -12 -794 51 -1273 208 -252 83 -462 165 -944 368
-556 234 -769 318 -1019 399 -348 114 -633 180 -965 224 -227 30 -756 33 -953
5 -390 -55 -681 -145 -995 -306 -258 -132 -458 -276 -676 -488 -214 -208 -367
-394 -753 -915 -210 -285 -227 -311 -224 -345 3 -36 5 -34 148 158 537 722
601 801 825 1024 247 248 447 394 725 534 424 212 868 311 1395 311 609 0
1173 -121 1890 -405 66 -26 307 -126 535 -222 533 -225 696 -288 965 -378 742
-248 1231 -281 2043 -141 108 19 289 50 402 70 315 55 497 76 710 83 372 11
576 -19 1265 -191 574 -142 893 -185 1290 -173 938 29 1690 419 2138 1107 148
229 273 549 317 810 6 36 13 75 15 88 5 18 1 22 -20 22 -17 0 -26 -6 -29 -22z"/>
<path d="M15836 11178 c-86 -426 -193 -706 -393 -1030 -211 -341 -560 -691
-903 -902 -572 -354 -1254 -512 -2051 -476 -499 23 -814 73 -1809 289 -1230
267 -1659 268 -2919 6 -792 -164 -1041 -201 -1426 -212 -443 -12 -792 37
-1640 233 -534 123 -811 179 -1048 209 -855 109 -1621 -7 -2282 -343 -277
-142 -523 -320 -746 -542 -142 -141 -204 -214 -448 -523 -160 -203 -172 -221
-169 -255 3 -36 5 -34 204 218 342 434 507 606 751 789 615 458 1433 687 2289
641 421 -22 661 -63 1469 -250 540 -125 795 -173 1130 -212 142 -16 634 -16
785 0 315 34 540 74 1230 216 602 123 880 162 1230 173 480 14 856 -38 1885
-262 700 -152 1047 -204 1510 -225 473 -22 947 31 1342 150 350 105 683 275
975 496 145 110 424 391 534 539 257 343 427 710 518 1115 41 180 41 180 12
180 -19 0 -27 -6 -30 -22z"/>
<path d="M16096 11048 c-58 -313 -148 -580 -293 -869 -256 -513 -627 -932
-1102 -1248 -161 -106 -367 -215 -536 -284 -547 -222 -1318 -343 -1968 -309
-410 22 -629 56 -1302 207 -775 173 -988 205 -1360 205 -469 0 -813 -86 -1450
-362 -662 -287 -798 -342 -1021 -408 -428 -126 -928 -172 -1529 -140 -104 6
-374 24 -600 40 -614 44 -830 53 -1110 46 -258 -6 -384 -15 -565 -42 -1140
-167 -2135 -842 -2724 -1847 -71 -120 -199 -384 -259 -533 -51 -125 -130 -286
-219 -446 -51 -92 -59 -113 -56 -150 l3 -43 66 115 c94 163 196 369 273 554
117 276 222 473 377 701 569 839 1464 1418 2451 1584 438 74 849 78 1693 16
182 -13 407 -30 500 -37 265 -19 844 -16 1045 6 502 54 777 137 1505 456 604
265 864 354 1196 411 176 30 544 37 758 15 280 -30 431 -59 1216 -235 461
-103 727 -142 1108 -163 536 -29 1156 46 1676 202 208 63 311 104 516 205 325
159 599 357 855 614 476 479 789 1082 909 1750 26 142 26 141 -2 141 -21 0
-24 -9 -51 -152z"/>
<path d="M16973 8950 c-377 -422 -643 -857 -857 -1397 -42 -105 -166 -459
-276 -787 -226 -675 -305 -881 -434 -1140 -191 -379 -401 -661 -660 -884 -371
-320 -803 -525 -1439 -682 -227 -56 -494 -106 -922 -175 -1009 -161 -1259
-214 -1740 -372 -344 -112 -615 -218 -1294 -503 -974 -408 -1397 -558 -1989
-704 -569 -141 -1029 -199 -1572 -200 -546 0 -1048 56 -1740 194 -378 75 -566
119 -1275 295 -810 202 -978 229 -1400 229 -195 0 -290 -4 -380 -17 -347 -51
-620 -146 -892 -309 -96 -58 -103 -64 -103 -94 l0 -32 83 55 c106 70 336 182
456 222 295 98 594 139 926 128 369 -13 554 -46 1270 -224 1188 -295 1702
-397 2347 -462 899 -92 1691 -15 2626 255 457 132 850 278 1587 587 739 310
915 380 1250 493 495 169 830 247 1530 359 512 81 819 134 997 170 1110 227
1759 626 2221 1362 91 145 250 470 333 678 36 94 153 429 259 745 257 768 297
875 451 1185 179 364 382 659 704 1027 33 38 41 53 38 80 -3 32 -4 31 -105
-82z"/>
<path d="M17006 5980 c-64 -145 -102 -240 -301 -755 -279 -721 -490 -1082
-848 -1452 -283 -292 -573 -502 -972 -704 -576 -291 -1261 -473 -1995 -529
-74 -6 -157 -13 -185 -16 -27 -3 -446 -9 -930 -14 -925 -8 -984 -11 -1315 -61
-450 -68 -811 -170 -1760 -499 -897 -311 -1372 -444 -1882 -530 -348 -57 -442
-65 -843 -65 -558 0 -697 22 -1695 265 -878 215 -1083 245 -1645 245 -365 0
-479 -9 -755 -56 -616 -105 -1188 -333 -1703 -679 -158 -106 -172 -118 -175
-148 -2 -17 -1 -32 2 -32 3 0 32 20 63 43 402 303 966 567 1488 696 412 102
729 137 1183 128 497 -9 721 -46 1622 -267 641 -157 938 -214 1265 -241 186
-15 696 -6 875 15 614 74 1190 222 2105 541 1139 396 1550 506 2140 571 120
13 322 18 1020 24 840 8 982 13 1295 46 1522 160 2678 803 3291 1831 145 244
251 480 479 1073 73 190 159 406 192 480 52 119 58 141 56 190 l-3 55 -69
-155z"/>
<path d="M16918 2451 c-201 -113 -344 -203 -756 -473 -819 -536 -1162 -723
-1602 -871 -400 -135 -735 -186 -1262 -194 -472 -7 -635 4 -1568 107 -930 102
-1366 130 -2090 130 -686 0 -1241 -29 -2200 -115 -958 -87 -1372 -95 -1920
-39 -306 31 -575 75 -1271 204 -954 178 -1297 224 -1774 236 -432 12 -804 -31
-1175 -136 -387 -110 -796 -320 -1110 -570 -169 -135 -190 -157 -190 -197 l0
-35 62 58 c252 233 615 460 948 592 625 249 1320 302 2250 171 230 -32 472
-74 956 -164 1491 -278 1833 -296 3229 -170 942 85 1511 115 2190 115 734 0
1184 -29 2138 -135 749 -84 904 -96 1311 -102 378 -6 558 3 808 37 523 73 958
228 1503 538 183 104 391 234 810 509 358 234 573 369 753 470 110 61 122 71
122 96 0 15 -1 27 -2 27 -2 0 -74 -40 -160 -89z"/>
</g>
</svg>
