<?xml version="1.0" standalone="no"?>
<!DOCTYPE svg PUBLIC "-//W3C//DTD SVG 20010904//EN"
 "http://www.w3.org/TR/2001/REC-SVG-20010904/DTD/svg10.dtd">
<svg version="1.0" xmlns="http://www.w3.org/2000/svg"
 width="1970.000000pt" height="892.000000pt" viewBox="0 0 1970.000000 892.000000"
 preserveAspectRatio="xMidYMid meet">
<metadata>
Created by potrace 1.13, written by Peter Selinger 2001-2015
</metadata>
<g transform="translate(0.000000,892.000000) scale(0.100000,-0.100000)"
fill="#000000" stroke="none">
<path d="M14777 7173 c-4 -3 -7 -431 -7 -950 l0 -944 -66 55 c-211 180 -392
250 -639 250 -146 -1 -218 -12 -343 -55 -229 -77 -457 -283 -577 -519 -40 -79
-97 -238 -87 -243 4 -3 126 -15 270 -28 248 -22 265 -23 275 -7 7 10 28 46 47
80 19 35 67 95 106 134 113 114 239 164 417 164 180 0 305 -49 420 -163 84
-84 131 -159 166 -266 l26 -76 230 -22 c127 -12 242 -22 258 -22 l27 -1 -2
1308 -3 1307 -256 3 c-140 1 -258 -1 -262 -5z"/>
<path d="M9003 6760 c-108 -35 -197 -137 -219 -250 l-6 -30 336 0 c381 0 351
-8 319 86 -23 68 -119 164 -188 188 -80 27 -170 30 -242 6z"/>
<path d="M8680 6367 c0 -29 54 -118 94 -155 81 -75 175 -105 283 -91 122 16
240 116 277 237 l7 22 -330 0 c-265 0 -331 -3 -331 -13z"/>
<path d="M17285 5589 c-191 -26 -423 -120 -565 -228 -146 -110 -300 -300 -370
-454 -38 -83 -76 -221 -91 -326 -20 -139 -2 -389 37 -513 5 -17 27 -18 281
-18 243 0 274 2 269 15 -45 118 -51 159 -51 350 1 212 9 252 82 385 46 83 178
215 253 252 180 90 456 91 635 3 122 -60 236 -184 295 -322 74 -175 79 -459
10 -633 l-20 -50 275 0 275 0 10 26 c36 93 51 365 29 520 -43 312 -214 589
-484 785 -122 89 -288 159 -460 194 -97 20 -315 27 -410 14z"/>
<path d="M4860 5578 c-105 -15 -271 -75 -362 -131 -177 -109 -351 -315 -432
-511 -77 -187 -101 -338 -93 -585 4 -139 11 -199 31 -284 88 -374 341 -677
659 -789 90 -32 142 -45 228 -57 l59 -8 0 244 c0 223 -1 244 -17 249 -186 60
-341 237 -405 460 -30 105 -33 352 -5 454 55 205 212 393 380 455 l47 18 0
248 c0 193 -3 249 -12 248 -7 -1 -42 -6 -78 -11z"/>
<path d="M5070 5357 l0 -234 89 -6 c315 -23 538 -238 589 -569 l15 -98 249 0
248 0 -2 538 -3 537 -260 0 -260 0 -5 -122 -5 -123 -70 61 c-160 138 -336 219
-532 244 l-53 7 0 -235z"/>
<path d="M7823 5580 c-114 -21 -209 -73 -325 -180 -36 -33 -68 -56 -72 -53 -3
3 -6 46 -6 95 l0 88 -255 0 -255 0 0 -723 0 -723 243 -57 c133 -31 248 -57
255 -57 9 0 12 52 12 228 1 382 21 544 87 678 35 73 103 140 171 172 50 24 70
27 157 27 115 0 157 -11 239 -60 32 -19 61 -33 65 -31 3 3 58 109 121 236
l115 232 -22 18 c-29 23 -153 75 -229 95 -72 20 -231 27 -301 15z"/>
<path d="M2450 5551 c-188 -28 -387 -123 -521 -248 -25 -24 -49 -40 -52 -36
-4 3 -7 55 -7 115 l0 108 -257 -2 -258 -3 -3 -268 -2 -267 22 -9 c13 -6 154
-31 314 -57 l291 -48 59 60 c77 79 138 120 227 152 64 23 87 26 212 26 123 1
149 -2 210 -23 145 -49 267 -162 338 -313 l42 -87 268 -1 c227 0 268 2 273 15
8 21 -40 184 -82 273 -51 113 -117 204 -224 315 -137 143 -279 225 -469 273
-105 27 -287 39 -381 25z"/>
<path d="M10365 5546 c-253 -48 -455 -221 -528 -451 -18 -59 -22 -93 -22 -215
0 -127 3 -153 24 -210 42 -117 7 -112 349 -51 401 71 368 60 296 100 -130 73
-184 135 -184 211 0 54 25 99 71 128 105 64 224 20 309 -114 l41 -65 67 37
c37 20 123 66 192 102 69 35 135 71 148 79 l22 14 -26 52 c-94 186 -257 326
-432 372 -88 22 -241 28 -327 11z"/>
<path d="M8750 4960 l0 -570 260 0 260 0 -2 568 -3 567 -257 3 -258 2 0 -570z"/>
<path d="M1240 3840 l0 -1009 38 -10 c20 -6 137 -35 260 -64 l222 -54 0 403
c0 222 2 404 5 404 3 0 35 -25 71 -56 128 -108 256 -175 409 -215 75 -20 114
-23 230 -23 206 1 373 46 532 144 143 88 306 269 388 430 92 182 148 475 130
685 l-7 85 -266 0 -267 0 0 -173 c-1 -159 -3 -178 -27 -250 -37 -109 -98 -206
-182 -290 -84 -84 -145 -120 -252 -147 -148 -38 -317 -20 -448 48 -82 43 -186
142 -235 225 -112 191 -140 482 -67 700 13 39 21 75 18 78 -6 6 -523 100 -544
99 -5 0 -8 -454 -8 -1010z"/>
<path d="M13202 4623 c-4 -10 -7 -106 -7 -213 0 -147 5 -217 18 -283 95 -466
383 -785 804 -889 106 -26 331 -31 428 -9 160 36 301 105 433 213 l72 59 0
-110 0 -111 265 0 265 0 -2 578 -3 577 -180 17 c-99 9 -210 19 -246 23 l-66 6
-6 -128 c-10 -220 -59 -351 -183 -482 -92 -98 -170 -144 -291 -172 -169 -39
-347 -14 -468 65 -71 47 -160 140 -205 216 -78 130 -119 317 -106 480 4 47 8
96 9 110 l2 25 -225 22 c-286 27 -299 28 -308 6z"/>
<path d="M10510 4570 c-146 -27 -307 -56 -358 -65 l-92 -17 46 -35 c63 -48
169 -106 364 -198 317 -149 402 -249 359 -422 -22 -85 -119 -153 -221 -153
l-28 0 0 -236 0 -236 73 7 c330 33 590 229 688 520 21 62 24 88 24 230 0 143
-3 167 -24 225 -58 157 -159 253 -406 387 -58 31 -91 42 -120 42 -22 -1 -159
-23 -305 -49z"/>
<path d="M5755 4293 c-36 -221 -80 -319 -200 -438 -118 -119 -254 -175 -419
-175 l-66 0 0 -235 0 -235 58 6 c190 22 379 104 534 234 l63 53 3 -112 3 -111
262 2 262 3 3 523 2 522 -249 0 -250 0 -6 -37z"/>
<path d="M8602 3788 l3 -493 258 -3 257 -2 0 495 0 495 -260 0 -260 0 2 -492z"/>
<path d="M7036 3933 c-3 -4 -6 -156 -6 -340 l0 -333 260 0 260 0 0 280 c0 154
-3 280 -6 280 -8 0 -473 109 -491 115 -6 2 -14 1 -17 -2z"/>
<path d="M16130 3915 c0 -3 15 -36 34 -73 136 -267 407 -495 687 -576 146 -42
207 -50 379 -49 177 0 257 12 405 60 280 91 528 301 663 561 l43 82 -293 0
-294 0 -44 -46 c-57 -59 -136 -118 -186 -139 -75 -31 -198 -55 -287 -55 -192
0 -334 53 -460 170 l-75 70 -286 0 c-157 0 -286 -2 -286 -5z"/>
<path d="M9998 3752 c-122 -57 -208 -103 -208 -111 0 -7 21 -53 46 -101 52
-99 162 -233 232 -285 99 -73 265 -139 367 -147 l40 -3 3 237 2 237 -37 20
c-21 10 -53 34 -71 51 -32 32 -116 152 -128 183 -3 10 -14 17 -23 16 -9 0
-109 -44 -223 -97z"/>
<path d="M1148 2414 c-2 -174 0 -320 3 -325 3 -5 112 -8 260 -7 l254 3 0 260
0 260 -250 62 c-137 34 -253 62 -257 63 -4 0 -9 -142 -10 -316z"/>
</g>
</svg>
